<?xml version="1.0" encoding="UTF-8" standalone="no"?>
<svg xmlns="http://www.w3.org/2000/svg" xmlns:xlink="http://www.w3.org/1999/xlink" contentScriptType="application/ecmascript" contentStyleType="text/css" height="336px" preserveAspectRatio="none" style="width:399px;height:336px;" version="1.1" viewBox="0 0 399 336" width="399px" zoomAndPan="magnify"><defs><filter height="300%" id="f14a20w6z6j4r6" width="300%" x="-1" y="-1"><feGaussianBlur result="blurOut" stdDeviation="2.0"/><feColorMatrix in="blurOut" result="blurOut2" type="matrix" values="0 0 0 0 0 0 0 0 0 0 0 0 0 0 0 0 0 0 .4 0"/><feOffset dx="4.0" dy="4.0" in="blurOut2" result="blurOut3"/><feBlend in="SourceGraphic" in2="blurOut3" mode="normal"/></filter></defs><g><!--MD5=[83ecf9fa7c8477cfd8a4c2c027f2600e]
cluster 老大:hadoop01,小弟:hadoop02、hadoop03--><rect fill="#FFFFFF" filter="url(#f14a20w6z6j4r6)" height="301" rx="12.5" ry="12.5" style="stroke: #000000; stroke-width: 1.5;" width="366" x="22" y="24"/><text fill="#000000" font-family="sans-serif" font-size="14" font-style="italic" lengthAdjust="spacingAndGlyphs" textLength="141" x="134.5" y="38.9951">«集群规划-xiaokang»</text><text fill="#000000" font-family="sans-serif" font-size="14" font-weight="bold" lengthAdjust="spacingAndGlyphs" textLength="329" x="40.5" y="55.292">老大:hadoop01,小弟:hadoop02、hadoop03</text><!--MD5=[db92098634247a23bb7cde76c17a5040]
entity hadoop01--><polygon fill="#FF0000" filter="url(#f14a20w6z6j4r6)" points="115.5,85,125.5,75,294.5,75,294.5,168.1875,284.5,178.1875,115.5,178.1875,115.5,85" style="stroke: #000000; stroke-width: 1.5;"/><line style="stroke: #000000; stroke-width: 1.5;" x1="284.5" x2="293.5" y1="85" y2="76"/><line style="stroke: #000000; stroke-width: 1.5;" x1="115.5" x2="284.5" y1="85" y2="85"/><line style="stroke: #000000; stroke-width: 1.5;" x1="284.5" x2="284.5" y1="85" y2="178.1875"/><text fill="#000000" font-family="sans-serif" font-size="14" lengthAdjust="spacingAndGlyphs" textLength="77" x="130.5" y="107.9951">NameNode</text><text fill="#000000" font-family="sans-serif" font-size="14" lengthAdjust="spacingAndGlyphs" textLength="69" x="130.5" y="124.292">DataNode</text><line style="stroke: #000000; stroke-width: 1.0;" x1="115.5" x2="284.5" y1="127.5938" y2="127.5938"/><line style="stroke: #000000; stroke-width: 1.0;" x1="284.5" x2="294.5" y1="127.5938" y2="117.5938"/><text fill="#000000" font-family="sans-serif" font-size="14" lengthAdjust="spacingAndGlyphs" textLength="127" x="136.5" y="144.5889">ResourceManager</text><text fill="#000000" font-family="sans-serif" font-size="14" lengthAdjust="spacingAndGlyphs" textLength="97" x="136.5" y="160.8857">NodeManager</text><!--MD5=[df9512a48bb9f1aba30125f6a52706be]
entity hadoop02--><polygon fill="#CCCCFF" filter="url(#f14a20w6z6j4r6)" points="38.5,248,48.5,238,187.5,238,187.5,298.5938,177.5,308.5938,38.5,308.5938,38.5,248" style="stroke: #000000; stroke-width: 1.5;"/><line style="stroke: #000000; stroke-width: 1.5;" x1="177.5" x2="186.5" y1="248" y2="239"/><line style="stroke: #000000; stroke-width: 1.5;" x1="38.5" x2="177.5" y1="248" y2="248"/><line style="stroke: #000000; stroke-width: 1.5;" x1="177.5" x2="177.5" y1="248" y2="308.5938"/><text fill="#000000" font-family="sans-serif" font-size="14" lengthAdjust="spacingAndGlyphs" textLength="69" x="53.5" y="270.9951">DataNode</text><line style="stroke: #000000; stroke-width: 1.0;" x1="38.5" x2="177.5" y1="274.2969" y2="274.2969"/><line style="stroke: #000000; stroke-width: 1.0;" x1="177.5" x2="187.5" y1="274.2969" y2="264.2969"/><text fill="#000000" font-family="sans-serif" font-size="14" lengthAdjust="spacingAndGlyphs" textLength="97" x="59.5" y="291.292">NodeManager</text><!--MD5=[726fdf7febfca0e9bacdf158ed7e638a]
entity hadoop03--><polygon fill="#CCCCFF" filter="url(#f14a20w6z6j4r6)" points="222.5,248,232.5,238,371.5,238,371.5,298.5938,361.5,308.5938,222.5,308.5938,222.5,248" style="stroke: #000000; stroke-width: 1.5;"/><line style="stroke: #000000; stroke-width: 1.5;" x1="361.5" x2="370.5" y1="248" y2="239"/><line style="stroke: #000000; stroke-width: 1.5;" x1="222.5" x2="361.5" y1="248" y2="248"/><line style="stroke: #000000; stroke-width: 1.5;" x1="361.5" x2="361.5" y1="248" y2="308.5938"/><text fill="#000000" font-family="sans-serif" font-size="14" lengthAdjust="spacingAndGlyphs" textLength="69" x="237.5" y="270.9951">DataNode</text><line style="stroke: #000000; stroke-width: 1.0;" x1="222.5" x2="361.5" y1="274.2969" y2="274.2969"/><line style="stroke: #000000; stroke-width: 1.0;" x1="361.5" x2="371.5" y1="274.2969" y2="264.2969"/><text fill="#000000" font-family="sans-serif" font-size="14" lengthAdjust="spacingAndGlyphs" textLength="97" x="243.5" y="291.292">NodeManager</text><!--MD5=[8ea563fc07748501c6fbbe12951b5737]
link hadoop01 to hadoop02--><path d="M172.823,178.214 C160.283,197.978 146.233,220.122 134.901,237.982 " fill="none" id="hadoop01-hadoop02" style="stroke: #A80036; stroke-width: 1.0;"/><!--MD5=[fb33424e1c2d3b38e90fe33b43648ea1]
link hadoop01 to hadoop03--><path d="M237.177,178.214 C249.717,197.978 263.767,220.122 275.099,237.982 " fill="none" id="hadoop01-hadoop03" style="stroke: #A80036; stroke-width: 1.0;"/><!--MD5=[b591012bd263573cc2cf3386e838d753]
@startuml
skinparam rectangle {
    roundCorner<<集群规划-xiaokang>> 25
}

rectangle "老大:hadoop01,小弟:hadoop02、hadoop03" <<集群规划-xiaokang>> {
node hadoop01 #red [
NameNode
DataNode
- - - -
ResourceManager
NodeManager
] 
node hadoop02 #CCCCFF [
DataNode
- - - -
NodeManager
]
node hadoop03 #CCCCFF [
DataNode
- - - -
NodeManager
]
hadoop01 - - hadoop02
hadoop01 - - hadoop03
}
@enduml

PlantUML version 1.2020.01beta5(Unknown compile time)
(GPL source distribution)
Java Runtime: Java(TM) SE Runtime Environment
JVM: Java HotSpot(TM) 64-Bit Server VM
Java Version: 1.7.0_25-b15
Operating System: Linux
Default Encoding: UTF-8
Language: en
Country: US
--></g></svg>